<mxfile host="app.diagrams.net" agent="Mozilla/5.0 (Windows NT 10.0; Win64; x64) AppleWebKit/537.36 (KHTML, like Gecko) Chrome/140.0.0.0 Safari/537.36 Edg/140.0.0.0" version="28.2.0">
  <diagram name="第 1 页" id="oOmn0ctsRuhf4384EfC4">
    <mxGraphModel dx="1418" dy="786" grid="1" gridSize="10" guides="1" tooltips="1" connect="1" arrows="1" fold="1" page="1" pageScale="1" pageWidth="827" pageHeight="1169" math="0" shadow="0">
      <root>
        <mxCell id="0" />
        <mxCell id="1" parent="0" />
        <mxCell id="mk1PeYjCAYZyhPmeWGiv-1" style="edgeStyle=orthogonalEdgeStyle;rounded=0;orthogonalLoop=1;jettySize=auto;html=1;exitX=0.5;exitY=1;exitDx=0;exitDy=0;shape=link;flowAnimation=1;shadow=1;fillColor=#e1d5e7;strokeColor=#9673a6;" edge="1" parent="1" source="mk1PeYjCAYZyhPmeWGiv-3" target="mk1PeYjCAYZyhPmeWGiv-5">
          <mxGeometry relative="1" as="geometry" />
        </mxCell>
        <mxCell id="mk1PeYjCAYZyhPmeWGiv-2" style="edgeStyle=orthogonalEdgeStyle;rounded=0;orthogonalLoop=1;jettySize=auto;html=1;shape=link;flowAnimation=1;shadow=1;fillColor=#e1d5e7;strokeColor=#9673a6;" edge="1" parent="1" source="mk1PeYjCAYZyhPmeWGiv-3" target="mk1PeYjCAYZyhPmeWGiv-7">
          <mxGeometry relative="1" as="geometry">
            <Array as="points">
              <mxPoint x="470" y="260" />
              <mxPoint x="575" y="260" />
            </Array>
          </mxGeometry>
        </mxCell>
        <mxCell id="mk1PeYjCAYZyhPmeWGiv-3" value="校园网" style="image;html=1;labelBackgroundColor=#ffffff;image=img/lib/clip_art/networking/Cloud_128x128.png;rounded=1;shadow=0;comic=0;strokeWidth=2;fontSize=22;labelPosition=center;verticalLabelPosition=top;align=center;verticalAlign=bottom;" vertex="1" parent="1">
          <mxGeometry x="430" y="150" width="80" height="80" as="geometry" />
        </mxCell>
        <mxCell id="mk1PeYjCAYZyhPmeWGiv-4" style="edgeStyle=orthogonalEdgeStyle;rounded=0;orthogonalLoop=1;jettySize=auto;html=1;shape=link;flowAnimation=1;fillColor=#fff2cc;strokeColor=#d6b656;" edge="1" parent="1" source="mk1PeYjCAYZyhPmeWGiv-5" target="mk1PeYjCAYZyhPmeWGiv-9">
          <mxGeometry relative="1" as="geometry" />
        </mxCell>
        <mxCell id="mk1PeYjCAYZyhPmeWGiv-5" value="数据中心防火墙" style="image;aspect=fixed;html=1;points=[];align=center;fontSize=12;image=img/lib/azure2/networking/Azure_Firewall_Manager.svg;" vertex="1" parent="1">
          <mxGeometry x="292" y="290" width="70" height="60" as="geometry" />
        </mxCell>
        <mxCell id="mk1PeYjCAYZyhPmeWGiv-6" value="" style="edgeStyle=orthogonalEdgeStyle;rounded=0;orthogonalLoop=1;jettySize=auto;html=1;flowAnimation=1;shape=link;fillColor=#fff2cc;strokeColor=#d6b656;" edge="1" parent="1" source="mk1PeYjCAYZyhPmeWGiv-7" target="mk1PeYjCAYZyhPmeWGiv-11">
          <mxGeometry relative="1" as="geometry">
            <Array as="points">
              <mxPoint x="595" y="380" />
              <mxPoint x="596" y="380" />
            </Array>
          </mxGeometry>
        </mxCell>
        <mxCell id="mk1PeYjCAYZyhPmeWGiv-7" value="数据中心防火墙" style="image;aspect=fixed;html=1;points=[];align=center;fontSize=12;image=img/lib/azure2/networking/Azure_Firewall_Manager.svg;" vertex="1" parent="1">
          <mxGeometry x="560" y="290" width="70" height="60" as="geometry" />
        </mxCell>
        <mxCell id="mk1PeYjCAYZyhPmeWGiv-8" value="" style="edgeStyle=orthogonalEdgeStyle;rounded=0;orthogonalLoop=1;jettySize=auto;html=1;fillColor=#dae8fc;strokeColor=#6c8ebf;shape=link;flowAnimation=1;shadow=1;" edge="1" parent="1" source="mk1PeYjCAYZyhPmeWGiv-9" target="mk1PeYjCAYZyhPmeWGiv-13">
          <mxGeometry relative="1" as="geometry" />
        </mxCell>
        <mxCell id="mk1PeYjCAYZyhPmeWGiv-9" value="数据中心WAF" style="image;aspect=fixed;html=1;points=[];align=center;fontSize=12;image=img/lib/azure2/networking/Web_Application_Firewall_Policies_WAF.svg;" vertex="1" parent="1">
          <mxGeometry x="292" y="410" width="68" height="68" as="geometry" />
        </mxCell>
        <mxCell id="mk1PeYjCAYZyhPmeWGiv-10" value="" style="edgeStyle=orthogonalEdgeStyle;rounded=0;orthogonalLoop=1;jettySize=auto;html=1;shape=link;fillColor=#dae8fc;strokeColor=#6c8ebf;flowAnimation=1;shadow=1;" edge="1" parent="1" source="mk1PeYjCAYZyhPmeWGiv-11" target="mk1PeYjCAYZyhPmeWGiv-15">
          <mxGeometry relative="1" as="geometry" />
        </mxCell>
        <mxCell id="mk1PeYjCAYZyhPmeWGiv-11" value="数据中心WAF" style="image;aspect=fixed;html=1;points=[];align=center;fontSize=12;image=img/lib/azure2/networking/Web_Application_Firewall_Policies_WAF.svg;" vertex="1" parent="1">
          <mxGeometry x="562" y="410" width="68" height="68" as="geometry" />
        </mxCell>
        <mxCell id="mk1PeYjCAYZyhPmeWGiv-12" style="edgeStyle=orthogonalEdgeStyle;rounded=0;orthogonalLoop=1;jettySize=auto;html=1;exitX=0.5;exitY=1;exitDx=0;exitDy=0;exitPerimeter=0;entryX=0.5;entryY=0;entryDx=0;entryDy=0;shape=link;fillColor=#d5e8d4;strokeColor=#82b366;flowAnimation=1;shadow=1;" edge="1" parent="1" source="mk1PeYjCAYZyhPmeWGiv-13" target="mk1PeYjCAYZyhPmeWGiv-16">
          <mxGeometry relative="1" as="geometry">
            <mxPoint x="480" y="730" as="targetPoint" />
          </mxGeometry>
        </mxCell>
        <mxCell id="mk1PeYjCAYZyhPmeWGiv-13" value="数据中心交换机" style="sketch=0;points=[[0.015,0.015,0],[0.985,0.015,0],[0.985,0.985,0],[0.015,0.985,0],[0.25,0,0],[0.5,0,0],[0.75,0,0],[1,0.25,0],[1,0.5,0],[1,0.75,0],[0.75,1,0],[0.5,1,0],[0.25,1,0],[0,0.75,0],[0,0.5,0],[0,0.25,0]];verticalLabelPosition=bottom;html=1;verticalAlign=top;aspect=fixed;align=center;pointerEvents=1;shape=mxgraph.cisco19.rect;prIcon=l3_switch;fillColor=#FAFAFA;strokeColor=#005073;" vertex="1" parent="1">
          <mxGeometry x="290" y="550" width="70" height="70" as="geometry" />
        </mxCell>
        <mxCell id="mk1PeYjCAYZyhPmeWGiv-14" style="edgeStyle=orthogonalEdgeStyle;rounded=0;orthogonalLoop=1;jettySize=auto;html=1;exitX=0.5;exitY=1;exitDx=0;exitDy=0;exitPerimeter=0;shape=link;fillColor=#d5e8d4;strokeColor=#82b366;flowAnimation=1;shadow=1;" edge="1" parent="1" source="mk1PeYjCAYZyhPmeWGiv-15" target="mk1PeYjCAYZyhPmeWGiv-16">
          <mxGeometry relative="1" as="geometry" />
        </mxCell>
        <mxCell id="mk1PeYjCAYZyhPmeWGiv-15" value="数据中心交换机" style="sketch=0;points=[[0.015,0.015,0],[0.985,0.015,0],[0.985,0.985,0],[0.015,0.985,0],[0.25,0,0],[0.5,0,0],[0.75,0,0],[1,0.25,0],[1,0.5,0],[1,0.75,0],[0.75,1,0],[0.5,1,0],[0.25,1,0],[0,0.75,0],[0,0.5,0],[0,0.25,0]];verticalLabelPosition=bottom;html=1;verticalAlign=top;aspect=fixed;align=center;pointerEvents=1;shape=mxgraph.cisco19.rect;prIcon=l3_switch;fillColor=#FAFAFA;strokeColor=#005073;" vertex="1" parent="1">
          <mxGeometry x="560" y="550" width="70" height="70" as="geometry" />
        </mxCell>
        <mxCell id="mk1PeYjCAYZyhPmeWGiv-16" value="云平台" style="image;aspect=fixed;perimeter=ellipsePerimeter;html=1;align=center;shadow=0;dashed=0;spacingTop=3;image=img/lib/active_directory/internet_cloud.svg;" vertex="1" parent="1">
          <mxGeometry x="430" y="740" width="95.24" height="60" as="geometry" />
        </mxCell>
      </root>
    </mxGraphModel>
  </diagram>
</mxfile>
